<?xml version="1.0" encoding="utf-8"?>
<!-- Generator: Adobe Illustrator 14.0.0, SVG Export Plug-In . SVG Version: 6.00 Build 43363)  -->
<!DOCTYPE svg PUBLIC "-//W3C//DTD SVG 1.1//EN" "http://www.w3.org/Graphics/SVG/1.1/DTD/svg11.dtd">
<svg version="1.1" id="Layer_1" xmlns="http://www.w3.org/2000/svg" xmlns:xlink="http://www.w3.org/1999/xlink" x="0px" y="0px"
	 width="430px" height="430px" viewBox="0 0 430 430" enable-background="new 0 0 430 430" xml:space="preserve">
<g>
	<g>
		<g>
			<path d="M69.726,387.17c0,4.836-2.548,10.114-7.021,10.114s-7.021-5.278-7.021-10.114c0-4.03,2.054-10.166,7.021-10.166
				S69.726,383.14,69.726,387.17z M57.869,387.274c0.052,2.756,1.222,7.981,4.836,7.981s4.784-5.226,4.836-7.981
				c0.052-2.782-1.144-8.243-4.836-8.243S57.817,384.492,57.869,387.274z"/>
		</g>
		<g>
			<path d="M394.805,379.37l1.144-2.028h4.29v19.604h-2.184V379.37H394.805z"/>
		</g>
	</g>
	<g>
		<g>
			<path d="M173.104,383.166c-2.184-1.274-4.056-1.847-6.11-1.847c-4.056,0-7.072,2.887-7.072,6.786
				c0,3.979,2.912,6.734,7.176,6.734c2.002,0,4.187-0.701,6.188-2.002v2.782c-1.742,0.91-3.64,1.561-6.422,1.561
				c-6.656,0-9.568-5.122-9.568-8.841c0-5.408,4.082-9.36,9.724-9.36c1.82,0,3.667,0.442,6.084,1.456V383.166z"/>
			<path d="M187.871,390.992c0,3.692-2.574,6.188-6.318,6.188c-3.588,0-6.162-2.601-6.162-6.188c0-3.354,2.678-5.954,6.162-5.954
				C185.219,385.038,187.871,387.534,187.871,390.992z M177.757,390.992c0,2.47,1.534,4.108,3.77,4.108
				c2.444,0,3.978-1.561,3.978-4.083c0-2.262-1.664-3.899-3.978-3.899C179.343,387.118,177.757,388.756,177.757,390.992z"/>
			<path d="M192.654,385.271v1.534c1.196-1.196,2.314-1.768,3.406-1.768c1.482,0,2.704,0.728,3.484,2.105
				c1.014-1.144,2.236-2.105,3.9-2.105c2.366,0,3.874,1.819,3.874,4.576v7.332h-2.314v-7.229c0-1.768-1.092-2.729-2.418-2.729
				c-0.754-0.026-1.768,0.624-2.6,1.481v8.477h-2.314v-7.254c0-1.898-0.962-2.704-2.106-2.704c-1.17,0-1.95,0.363-2.912,1.481v8.477
				h-2.314v-11.675H192.654z"/>
			<path d="M212.648,402.927h-2.314v-17.655h4.005c4.264,0,6.578,2.08,6.578,5.929c0,3.51-2.471,5.98-5.929,5.98
				c-0.754,0-1.456-0.156-2.34-0.521V402.927z M212.648,394.58c0.702,0.338,1.456,0.521,2.185,0.521
				c2.157,0,3.718-1.664,3.718-3.927c0-2.418-1.274-3.822-3.796-3.822h-2.106V394.58z"/>
			<path d="M235.268,390.992c0,3.692-2.574,6.188-6.318,6.188c-3.588,0-6.162-2.601-6.162-6.188c0-3.354,2.679-5.954,6.162-5.954
				C232.617,385.038,235.268,387.534,235.268,390.992z M225.154,390.992c0,2.47,1.534,4.108,3.771,4.108
				c2.444,0,3.978-1.561,3.978-4.083c0-2.262-1.664-3.899-3.978-3.899C226.74,387.118,225.154,388.756,225.154,390.992z"/>
			<path d="M244.628,388.288c-1.3-0.858-2.522-1.222-3.38-1.222c-0.937,0-1.534,0.441-1.534,1.065c0,0.521,0.779,1.145,2.834,2.34
				c1.924,1.274,2.626,2.08,2.626,3.276c0,2.055-1.638,3.433-3.849,3.433c-1.43,0-2.548-0.286-4.056-1.066v-2.496
				c1.508,1.04,2.886,1.534,3.822,1.534c0.936-0.052,1.716-0.494,1.716-1.326c0-1.612-5.46-2.47-5.46-5.616
				c0-1.976,1.508-3.172,3.848-3.172c1.093,0,2.21,0.312,3.433,0.962V388.288z"/>
			<path d="M249.074,383.113c-0.754,0-1.378-0.623-1.378-1.378c0-0.754,0.624-1.378,1.378-1.378s1.378,0.624,1.378,1.378
				C250.452,382.49,249.828,383.113,249.074,383.113z M250.218,396.946h-2.314v-11.675h2.314V396.946z"/>
			<path d="M256.25,385.271h3.692v2.08h-3.692v5.98c0,1.378,0.988,1.769,1.664,1.769c0.832,0,1.69-0.286,2.626-0.858v2.158
				c-0.806,0.441-2.054,0.78-2.808,0.78c-2.522,0-3.796-1.561-3.796-3.667v-6.162h-2.028v-0.26l4.342-4.238V385.271z"/>
			<path d="M263.425,383.113c-0.754,0-1.378-0.623-1.378-1.378c0-0.754,0.624-1.378,1.378-1.378s1.378,0.624,1.378,1.378
				C264.803,382.49,264.179,383.113,263.425,383.113z M264.57,396.946h-2.314v-11.675h2.314V396.946z"/>
			<path d="M279.675,390.992c0,3.692-2.574,6.188-6.318,6.188c-3.588,0-6.162-2.601-6.162-6.188c0-3.354,2.679-5.954,6.162-5.954
				C277.024,385.038,279.675,387.534,279.675,390.992z M269.561,390.992c0,2.47,1.534,4.108,3.771,4.108
				c2.444,0,3.978-1.561,3.978-4.083c0-2.262-1.664-3.899-3.978-3.899C271.147,387.118,269.561,388.756,269.561,390.992z"/>
			<path d="M284.511,386.806h0.052c0.884-1.118,2.184-1.768,3.484-1.768c2.21,0,3.978,1.508,3.978,4.706v7.202h-2.313v-7.229
				c0-1.716-0.885-2.834-2.288-2.834c-1.015,0-1.82,0.468-2.912,1.69v8.372h-2.314v-11.675h2.314V386.806z"/>
		</g>
		<g>
			<path d="M29.708,242.585v6.136h15.444v2.549H29.708v6.137h-2.288v-14.821H29.708z"/>
			<path d="M44.007,233.613c0.937,1.404,1.379,2.678,1.379,4.654c0,3.64-2.99,5.668-6.215,5.668c-3.536,0-5.928-2.236-5.928-5.461
				c0-3.094,2.105-5.07,6.422-5.07v8.217c2.314-0.363,3.51-1.689,3.51-3.926c0-1.404-0.52-2.73-1.403-4.082H44.007z M38.131,235.693
				c-1.768,0.078-2.886,1.092-2.886,2.73c0,1.768,1.04,2.834,2.886,3.146V235.693z"/>
			<path d="M33.477,227.66h1.534c-1.195-1.197-1.768-2.314-1.768-3.406c0-1.482,0.728-2.705,2.105-3.484
				c-1.144-1.014-2.105-2.236-2.105-3.9c0-2.366,1.82-3.874,4.576-3.874h7.332v2.313h-7.229c-1.768,0-2.729,1.093-2.729,2.418
				c-0.026,0.755,0.624,1.77,1.481,2.602h8.477v2.313h-7.254c-1.898,0-2.704,0.962-2.704,2.106c0,1.17,0.363,1.949,1.481,2.912
				h8.477v2.313H33.477V227.66z"/>
			<path d="M51.132,206.625v2.314H33.477v-4.004c0-4.264,2.08-6.578,5.929-6.578c3.51,0,5.98,2.47,5.98,5.928
				c0,0.754-0.156,1.456-0.521,2.34H51.132z M42.786,206.625c0.338-0.702,0.521-1.456,0.521-2.184c0-2.158-1.664-3.718-3.927-3.718
				c-2.418,0-3.822,1.274-3.822,3.796v2.106H42.786z"/>
			<path d="M44.007,184.994c0.937,1.404,1.379,2.678,1.379,4.654c0,3.64-2.99,5.668-6.215,5.668c-3.536,0-5.928-2.236-5.928-5.46
				c0-3.094,2.105-5.07,6.422-5.07v8.216c2.314-0.364,3.51-1.69,3.51-3.926c0-1.404-0.52-2.73-1.403-4.082H44.007z M38.131,187.074
				c-1.768,0.078-2.886,1.092-2.886,2.73c0,1.768,1.04,2.834,2.886,3.146V187.074z"/>
			<path d="M33.477,178.78h2.679v-0.052c-2.055-1.17-2.912-2.288-2.912-3.38c0-0.937,0.441-1.82,1.352-2.782l2.002,1.222
				c-0.676,0.702-1.144,1.612-1.144,2.158c0,1.586,1.586,2.834,3.588,2.834h6.11v2.314H33.477V178.78z"/>
			<path d="M44.476,160.866c0.702,1.066,0.91,1.508,0.91,2.236c0,1.014-0.364,1.56-1.196,1.768c0.806,1.014,1.196,2.08,1.196,3.146
				c0,1.716-1.353,2.86-2.86,2.86c-2.314,0-3.017-2.106-3.692-3.979l-0.728-2.054h-0.624c-1.456,0-2.055,0.702-2.055,2.106
				c0,1.274,0.599,2.574,1.924,3.692H34.83c-1.066-0.91-1.586-2.184-1.586-3.874c0-2.366,1.195-4.238,3.848-4.238h6.007
				c0.441,0,0.598-0.156,0.598-0.442c0-0.234-0.234-0.702-0.624-1.222H44.476z M39.379,164.844c0.677,1.976,1.353,3.692,2.73,3.692
				c0.962,0,1.638-0.702,1.638-1.664c0-0.728-0.363-1.404-0.962-2.028H39.379z"/>
			<path d="M33.477,155.068v-3.692h2.08v3.692h5.98c1.378,0,1.769-0.988,1.769-1.664c0-0.832-0.286-1.69-0.858-2.626h2.158
				c0.442,0.806,0.78,2.054,0.78,2.808c0,2.522-1.561,3.796-3.666,3.796h-6.163v2.028h-0.26l-4.238-4.342H33.477z"/>
			<path d="M45.152,140.665h-1.482c1.04,0.962,1.717,2.314,1.717,3.458c0,2.366-1.69,4.03-4.654,4.03h-7.255v-2.314h7.411
				c1.638,0,2.573-0.806,2.573-2.392c0-1.04-0.571-2.028-1.638-2.782h-8.347v-2.314h11.675V140.665z"/>
			<path d="M33.477,131.565h2.679v-0.052c-2.055-1.17-2.912-2.288-2.912-3.38c0-0.936,0.441-1.82,1.352-2.782l2.002,1.222
				c-0.676,0.702-1.144,1.612-1.144,2.158c0,1.586,1.586,2.834,3.588,2.834h6.11v2.314H33.477V131.565z"/>
			<path d="M44.007,113.462c0.937,1.404,1.379,2.678,1.379,4.654c0,3.64-2.99,5.668-6.215,5.668c-3.536,0-5.928-2.236-5.928-5.46
				c0-3.094,2.105-5.07,6.422-5.07v8.217c2.314-0.364,3.51-1.69,3.51-3.926c0-1.404-0.52-2.73-1.403-4.083H44.007z M38.131,115.542
				c-1.768,0.078-2.886,1.092-2.886,2.73c0,1.768,1.04,2.834,2.886,3.146V115.542z"/>
		</g>
		<g>
			<path d="M161.704,196.935h8.009v2.288h-10.557V181.49h2.548V196.935z"/>
			<path d="M188.068,185.442c-2.185-1.274-4.056-1.846-6.11-1.846c-4.056,0-7.072,2.886-7.072,6.786
				c0,3.978,2.912,6.734,7.177,6.734c2.002,0,4.186-0.702,6.188-2.002v2.782c-1.741,0.91-3.64,1.56-6.422,1.56
				c-6.656,0-9.568-5.122-9.568-8.84c0-5.408,4.082-9.36,9.725-9.36c1.819,0,3.666,0.442,6.084,1.456V185.442z"/>
			<path d="M200.833,185.39c-1.508-1.43-2.964-1.846-4.16-1.846c-1.638,0-2.808,0.858-2.808,2.106c0,3.406,7.67,3.354,7.67,8.996
				c0,2.782-2.105,4.81-4.966,4.81c-1.924,0-3.484-0.52-4.966-1.638v-3.224c1.3,1.664,2.938,2.574,4.68,2.574
				c1.977,0,2.886-1.248,2.886-2.236c0-3.666-7.67-4.082-7.67-8.944c0-2.886,2.132-4.732,5.382-4.732
				c1.353,0,2.704,0.416,3.952,1.248V185.39z"/>
			<path d="M218.67,183.778h-6.137v15.444h-2.548v-15.444h-6.136v-2.288h14.82V183.778z"/>
		</g>
		<g>
			<path d="M171.247,245.648c0,4.342-2.6,7.202-7.878,7.202c-3.744,0-7.385-2.106-7.385-6.942v-11.024h2.548v10.478
				c0,2.003,0.261,2.835,1.066,3.641c1.014,1.014,2.288,1.508,3.822,1.508c1.95,0,3.354-0.623,4.16-1.43
				c0.91-0.91,1.118-2.21,1.118-3.874v-10.322h2.548V245.648z"/>
			<path d="M190.903,238.836c-2.184-1.274-4.057-1.846-6.11-1.846c-4.056,0-7.072,2.886-7.072,6.785
				c0,3.979,2.912,6.734,7.177,6.734c2.002,0,4.186-0.701,6.188-2.002v2.782c-1.742,0.91-3.64,1.561-6.422,1.561
				c-6.656,0-9.568-5.122-9.568-8.841c0-5.408,4.082-9.36,9.725-9.36c1.82,0,3.666,0.442,6.084,1.456V238.836z"/>
			<path d="M203.667,238.783c-1.508-1.43-2.964-1.846-4.16-1.846c-1.638,0-2.808,0.858-2.808,2.106c0,3.405,7.67,3.354,7.67,8.996
				c0,2.782-2.105,4.811-4.966,4.811c-1.924,0-3.484-0.521-4.966-1.639v-3.224c1.3,1.664,2.938,2.574,4.68,2.574
				c1.977,0,2.886-1.248,2.886-2.236c0-3.666-7.67-4.082-7.67-8.944c0-2.886,2.132-4.732,5.382-4.732
				c1.353,0,2.704,0.416,3.952,1.248V238.783z"/>
			<path d="M221.504,237.172h-6.137v15.444h-2.548v-15.444h-6.136v-2.288h14.82V237.172z"/>
		</g>
	</g>
	<g>
		<g>
			<path d="M259.607,94.796c-1.275,0.109-2.062,0.608-2.552,1.158c-0.671,0.753-0.755,1.643-0.181,2.154
				c1.567,1.394,4.682-2.156,7.277,0.152c1.279,1.138,1.351,2.937,0.181,4.252c-0.787,0.885-1.664,1.39-2.785,1.614l-1.483-1.319
				c1.297,0.083,2.387-0.298,3.099-1.1c0.809-0.909,0.606-1.838,0.152-2.242c-1.688-1.5-5.016,1.858-7.253-0.131
				c-1.327-1.18-1.305-2.917,0.025-4.412c0.553-0.622,1.298-1.074,2.191-1.307L259.607,94.796z"/>
			<path d="M270.899,100.453l-0.946,1.064l-8.121-7.223l1.638-1.842c1.745-1.961,3.647-2.175,5.418-0.601
				c1.614,1.436,1.74,3.583,0.326,5.174c-0.309,0.347-0.668,0.605-1.197,0.863L270.899,100.453z M267.059,97.038
				c0.444-0.184,0.835-0.457,1.133-0.792c0.883-0.993,0.756-2.391-0.285-3.316c-1.111-0.989-2.279-0.978-3.311,0.183l-0.862,0.969
				L267.059,97.038z"/>
			<path d="M266.718,86.799c-0.309,0.347-0.851,0.379-1.198,0.07c-0.347-0.308-0.378-0.85-0.069-1.197
				c0.309-0.347,0.851-0.379,1.197-0.071C266.996,85.911,267.027,86.453,266.718,86.799z M273.55,91.933l-0.947,1.064l-5.37-4.776
				l0.947-1.064L273.55,91.933z"/>
			<path d="M271.171,85.214l0.021-0.024c-0.152-0.864,0.08-1.728,0.612-2.326c0.904-1.017,2.321-1.213,3.792,0.095l3.313,2.946
				l-0.946,1.064l-3.326-2.957c-0.788-0.702-1.664-0.752-2.239-0.106c-0.414,0.466-0.529,1.029-0.413,2.03l3.852,3.425l-0.947,1.065
				l-5.37-4.776l0.947-1.065L271.171,85.214z"/>
			<path d="M282.306,76.571c1.698,1.51,1.794,3.716,0.262,5.438c-1.468,1.65-3.717,1.77-5.367,0.303
				c-1.543-1.373-1.644-3.668-0.219-5.271C278.482,75.355,280.715,75.156,282.306,76.571z M278.168,81.224
				c1.137,1.011,2.518,0.975,3.432-0.054c1-1.124,0.91-2.467-0.25-3.5c-1.04-0.925-2.475-0.831-3.422,0.234
				C277.036,78.909,277.14,80.309,278.168,81.224z"/>
			<path d="M290.223,73.185l-2.01,2.261c-1.426,1.603-3.408,1.639-5.131,0.108c-1.555-1.383-1.678-3.484-0.284-5.051
				c0.319-0.359,0.677-0.641,1.216-0.933l-2.895-2.574l0.946-1.064L290.223,73.185z M284.958,70.409
				c-0.463,0.231-0.767,0.453-1.086,0.812c-0.915,1.029-0.79,2.383,0.333,3.382c1.005,0.894,2.121,1.157,3.217-0.075l0.957-1.077
				L284.958,70.409z"/>
			<path d="M294.91,67.289c-0.113,0.778-0.198,1.066-0.496,1.401c-0.415,0.466-0.807,0.568-1.273,0.324
				c-0.045,0.796-0.301,1.446-0.737,1.937c-0.702,0.789-1.792,0.762-2.485,0.146c-1.064-0.947-0.526-2.203-0.071-3.341l0.505-1.243
				l-0.286-0.255c-0.67-0.596-1.232-0.517-1.807,0.128c-0.521,0.586-0.778,1.429-0.626,2.486l-1.16-1.032
				c-0.118-0.855,0.164-1.654,0.855-2.431c0.968-1.088,2.284-1.46,3.504-0.375l2.763,2.457c0.203,0.181,0.34,0.173,0.457,0.042
				c0.096-0.108,0.18-0.418,0.213-0.817L294.91,67.289z M290.937,67.034c-0.497,1.186-0.888,2.252-0.255,2.815
				c0.443,0.394,1.041,0.347,1.435-0.095c0.298-0.335,0.407-0.795,0.388-1.327L290.937,67.034z"/>
			<path d="M297.027,65.535l-0.946,1.064l-8.157-7.254l0.946-1.064L297.027,65.535z"/>
			<path d="M300.882,53.202c-0.949,0.249-1.431,0.549-1.846,1.016c-0.861,0.969-0.727,2.288,0.361,3.255
				c1.112,0.99,2.421,0.868,3.399-0.233c0.404-0.454,0.668-0.991,0.907-1.743l1.052,0.936c-0.151,0.508-0.614,1.318-1.114,1.88
				c-1.425,1.603-3.537,1.737-5.116,0.333c-1.77-1.574-1.979-3.603-0.533-5.229c0.553-0.622,1.069-0.913,1.754-1.226L300.882,53.202
				z"/>
			<path d="M309.033,52.036l-0.682-0.606c0.084,0.868-0.158,1.767-0.626,2.293c-0.968,1.088-2.426,1.162-3.789-0.05l-3.337-2.968
				l0.946-1.064l3.408,3.032c0.754,0.67,1.515,0.683,2.163-0.047c0.426-0.478,0.566-1.167,0.385-1.95l-3.839-3.415l0.946-1.064
				l5.37,4.776L309.033,52.036z"/>
			<path d="M306.958,43.555l1.231,1.096l0.021-0.024c-0.467-1.378-0.403-2.244,0.043-2.747c0.383-0.43,0.949-0.656,1.761-0.727
				l0.421,1.381c-0.6,0.046-1.187,0.273-1.41,0.525c-0.648,0.729-0.43,1.953,0.491,2.772l2.812,2.5l-0.946,1.064l-5.37-4.776
				L306.958,43.555z"/>
			<path d="M309.836,40.318l1.031-1.16l4.587,1.488l-2.044-4.347l1.011-1.136l3.371,7.24l-0.319,0.359L309.836,40.318z"/>
			<path d="M323.754,34.423c-0.145,1.028-0.462,1.796-1.271,2.705c-1.489,1.675-3.694,1.384-5.178,0.065
				c-1.627-1.447-1.812-3.454-0.493-4.937c1.266-1.423,3.043-1.47,5.029,0.295l-3.361,3.779c1.212,0.779,2.306,0.658,3.221-0.371
				c0.574-0.646,0.876-1.469,1.023-2.452L323.754,34.423z M320.2,32.976c-0.845-0.688-1.774-0.679-2.444,0.075
				c-0.724,0.813-0.682,1.729,0.041,2.628L320.2,32.976z"/>
		</g>
		<g>
			<path d="M302.882,116.59c-1.531,0.277-2.637,0.757-3.598,1.579c-1.898,1.621-2.158,4.179-0.598,6.004
				c1.59,1.862,4.055,1.988,6.051,0.283c0.938-0.801,1.68-2.002,2.098-3.412l1.111,1.302c-0.451,1.123-1.08,2.186-2.381,3.298
				c-3.117,2.662-6.527,1.429-8.016-0.312c-2.162-2.531-1.83-6.013,0.811-8.27c0.852-0.728,1.893-1.259,3.43-1.75L302.882,116.59z"
				/>
			<path d="M312.921,114.351c1.477,1.728,1.27,3.926-0.484,5.423c-1.678,1.435-3.924,1.248-5.357-0.432
				c-1.342-1.57-1.129-3.858,0.504-5.251C309.298,112.625,311.539,112.732,312.921,114.351z M308.187,118.396
				c0.988,1.156,2.361,1.309,3.408,0.416c1.143-0.978,1.238-2.321,0.229-3.501c-0.904-1.059-2.338-1.16-3.422-0.235
				C307.38,115.948,307.292,117.349,308.187,118.396z"/>
			<path d="M320.611,111.678c-0.283,1-0.703,1.716-1.629,2.506c-1.703,1.456-3.848,0.866-5.137-0.643
				c-1.414-1.655-1.324-3.669,0.186-4.958c1.447-1.237,3.215-1.042,4.939,0.979l-3.846,3.285c1.096,0.938,2.195,0.968,3.242,0.074
				c0.658-0.561,1.07-1.335,1.35-2.29L320.611,111.678z M317.287,109.759c-0.742-0.796-1.666-0.914-2.432-0.259
				c-0.828,0.707-0.91,1.62-0.318,2.608L317.287,109.759z"/>
			<path d="M322.871,105.875l4.779,0.717l-1.387,1.185l-3.391-0.494l0.055,3.343l-1.363,1.165l-0.07-4.74l-4.598-0.725l1.363-1.165
				l3.221,0.492l-0.043-3.205l1.387-1.185L322.871,105.875z"/>
			<path d="M323.455,98.975c-0.352,0.301-0.895,0.259-1.195-0.094c-0.303-0.353-0.258-0.895,0.094-1.196
				c0.354-0.301,0.895-0.259,1.197,0.094C323.851,98.132,323.808,98.674,323.455,98.975z M329.521,104.993l-1.082,0.925
				l-4.668-5.465l1.082-0.925L329.521,104.993z"/>
			<path d="M330.792,96.896c-0.951,0.118-1.668,0.437-2.07,0.779c-0.438,0.375-0.541,0.82-0.291,1.112
				c0.207,0.244,0.82,0.225,2.262-0.038c1.41-0.172,2.061-0.077,2.539,0.483c0.82,0.961,0.605,2.262-0.43,3.146
				c-0.67,0.572-1.307,0.885-2.324,1.123l-0.998-1.168c1.121-0.116,1.965-0.436,2.402-0.81c0.418-0.399,0.605-0.918,0.273-1.308
				c-0.645-0.754-3.545,1.028-4.803-0.445c-0.789-0.925-0.562-2.088,0.533-3.023c0.512-0.436,1.16-0.737,1.992-0.922L330.792,96.896
				z"/>
			<path d="M332.359,93.116l1.73-1.477l0.832,0.974l-1.73,1.477l2.391,2.799c0.553,0.645,1.172,0.433,1.488,0.162
				c0.389-0.333,0.676-0.81,0.885-1.452l0.863,1.01c-0.199,0.529-0.65,1.186-1.002,1.487c-1.182,1.009-2.402,0.788-3.244-0.197
				l-2.463-2.885l-0.949,0.811l-0.104-0.122l0.336-3.72L332.359,93.116z"/>
			<path d="M343.919,91.768c-0.281,1-0.701,1.715-1.627,2.506c-1.705,1.456-3.85,0.866-5.139-0.643
				c-1.414-1.655-1.322-3.669,0.186-4.958c1.449-1.237,3.217-1.042,4.941,0.979l-3.846,3.285c1.096,0.938,2.195,0.968,3.242,0.074
				c0.656-0.562,1.07-1.335,1.35-2.29L343.919,91.768z M340.597,89.849c-0.742-0.797-1.666-0.914-2.432-0.26
				c-0.828,0.707-0.912,1.62-0.318,2.609L340.597,89.849z"/>
			<path d="M342.646,85.572l0.023-0.02c-0.033-0.877,0.314-1.701,0.924-2.221c1.035-0.884,2.465-0.885,3.744,0.613l2.879,3.371
				l-1.082,0.925l-2.891-3.384c-0.686-0.803-1.547-0.972-2.205-0.411c-0.475,0.405-0.664,0.946-0.686,1.954l3.348,3.919
				l-1.084,0.926l-4.668-5.465l1.084-0.926L342.646,85.572z"/>
			<path d="M352.289,78.556c-0.975,0.116-1.492,0.348-1.967,0.753c-0.986,0.842-1.033,2.167-0.086,3.274
				c0.967,1.132,2.279,1.19,3.398,0.234c0.463-0.396,0.797-0.891,1.137-1.602l0.914,1.071c-0.219,0.481-0.789,1.221-1.361,1.709
				c-1.629,1.393-3.74,1.238-5.113-0.368c-1.539-1.801-1.469-3.839,0.186-5.253c0.633-0.54,1.186-0.758,1.906-0.975L352.289,78.556z
				"/>
			<path d="M361.16,77.042c-0.283,1-0.703,1.716-1.629,2.506c-1.703,1.456-3.848,0.866-5.137-0.643
				c-1.414-1.655-1.324-3.669,0.186-4.958c1.447-1.237,3.215-1.042,4.941,0.979l-3.846,3.285c1.096,0.938,2.193,0.968,3.24,0.074
				c0.658-0.562,1.07-1.335,1.35-2.29L361.16,77.042z M357.835,75.123c-0.742-0.796-1.664-0.914-2.432-0.259
				c-0.828,0.707-0.91,1.62-0.318,2.609L357.835,75.123z"/>
			<path d="M366.828,66.139c-0.975,0.116-1.494,0.348-1.969,0.753c-0.984,0.842-1.031,2.167-0.086,3.274
				c0.967,1.132,2.279,1.19,3.398,0.233c0.463-0.395,0.797-0.891,1.137-1.602l0.914,1.071c-0.219,0.482-0.789,1.221-1.359,1.709
				c-1.631,1.393-3.742,1.238-5.115-0.368c-1.537-1.801-1.469-3.84,0.188-5.253c0.633-0.541,1.184-0.758,1.904-0.975L366.828,66.139
				z"/>
			<path d="M375.058,66.096l-0.592-0.694c-0.035,0.872-0.396,1.729-0.934,2.186c-1.107,0.946-2.562,0.821-3.746-0.567l-2.9-3.396
				l1.082-0.926l2.963,3.469c0.656,0.767,1.406,0.882,2.15,0.249c0.486-0.417,0.721-1.079,0.646-1.879l-3.338-3.907l1.084-0.925
				l4.668,5.465L375.058,66.096z"/>
			<path d="M374.162,57.41l1.07,1.254l0.023-0.021c-0.271-1.43-0.092-2.278,0.418-2.715c0.439-0.374,1.029-0.521,1.844-0.479
				l0.229,1.425c-0.598-0.036-1.211,0.11-1.467,0.328c-0.742,0.634-0.693,1.875,0.107,2.812l2.443,2.86l-1.084,0.925l-4.668-5.465
				L374.162,57.41z"/>
			<path d="M377.455,54.597l1.182-1.008l4.342,2.102l-1.434-4.586l1.156-0.988l2.352,7.633l-0.365,0.312L377.455,54.597z"/>
			<path d="M392.048,50.658c-0.283,1-0.703,1.715-1.629,2.506c-1.703,1.456-3.848,0.866-5.137-0.643
				c-1.414-1.655-1.324-3.669,0.186-4.958c1.447-1.237,3.215-1.042,4.939,0.979l-3.844,3.285c1.096,0.938,2.193,0.968,3.24,0.074
				c0.658-0.562,1.07-1.335,1.35-2.29L392.048,50.658z M388.724,48.739c-0.742-0.797-1.664-0.914-2.432-0.26
				c-0.828,0.707-0.91,1.62-0.318,2.609L388.724,48.739z"/>
		</g>
		<g>
			<path d="M253.152,304.142c-0.291-1.246-0.898-1.953-1.514-2.357c-0.842-0.555-1.734-0.511-2.156,0.131
				c-1.154,1.751,2.806,4.322,0.895,7.223c-0.943,1.43-2.712,1.76-4.182,0.791c-0.99-0.652-1.615-1.449-1.998-2.525l1.092-1.656
				c0.105,1.295,0.639,2.317,1.535,2.908c1.015,0.669,1.904,0.336,2.24-0.172c1.241-1.885-2.561-4.697-0.913-7.196
				c0.978-1.483,2.698-1.71,4.368-0.609c0.696,0.458,1.25,1.13,1.609,1.981L253.152,304.142z"/>
			<path d="M249.177,316.13l-1.189-0.783l5.98-9.075l2.059,1.356c2.191,1.444,2.676,3.297,1.373,5.275
				c-1.189,1.805-3.296,2.237-5.074,1.066c-0.387-0.256-0.695-0.574-1.025-1.061L249.177,316.13z M252.004,311.84
				c0.247,0.412,0.572,0.761,0.946,1.008c1.109,0.73,2.476,0.403,3.242-0.759c0.818-1.243,0.64-2.396-0.656-3.25l-1.084-0.715
				L252.004,311.84z"/>
			<path d="M257.99,317.528l-1.189-0.783l3.955-6.002l1.189,0.785L257.99,317.528z M262.087,310.03
				c-0.387-0.254-0.497-0.787-0.242-1.175c0.256-0.388,0.789-0.496,1.176-0.241c0.388,0.256,0.498,0.787,0.242,1.176
				C263.007,310.177,262.475,310.286,262.087,310.03z"/>
			<path d="M264.298,314.21l0.025,0.017c0.834-0.274,1.722-0.169,2.391,0.271c1.135,0.749,1.533,2.122,0.449,3.767l-2.439,3.702
				l-1.188-0.783l2.448-3.716c0.582-0.882,0.505-1.756-0.217-2.232c-0.521-0.344-1.094-0.375-2.068-0.117l-2.836,4.304l-1.189-0.784
				l3.954-6.001l1.19,0.784L264.298,314.21z"/>
			<path d="M274.452,323.987c-1.251,1.898-3.421,2.309-5.345,1.04c-1.844-1.216-2.287-3.424-1.071-5.269
				c1.136-1.725,3.394-2.154,5.185-0.973C275.105,320.028,275.623,322.21,274.452,323.987z M269.252,320.562
				c-0.837,1.27-0.604,2.631,0.546,3.389c1.256,0.827,2.573,0.545,3.428-0.752c0.766-1.162,0.465-2.568-0.725-3.352
				C271.378,319.106,270.009,319.411,269.252,320.562z"/>
			<path d="M278.94,331.335l-2.526-1.665c-1.791-1.181-2.112-3.136-0.844-5.062c1.145-1.736,3.207-2.16,4.958-1.007
				c0.4,0.264,0.731,0.577,1.098,1.068l2.132-3.234l1.189,0.784L278.94,331.335z M280.929,325.726
				c-0.295-0.424-0.558-0.693-0.959-0.957c-1.15-0.758-2.471-0.44-3.299,0.816c-0.739,1.122-0.84,2.264,0.537,3.171l1.202,0.792
				L280.929,325.726z"/>
			<path d="M285.448,335.126c-0.786-0.002-1.085-0.045-1.458-0.291c-0.521-0.344-0.679-0.715-0.504-1.214
				c-0.795,0.071-1.475-0.09-2.023-0.451c-0.882-0.581-1.012-1.663-0.5-2.438c0.783-1.189,2.104-0.837,3.295-0.551l1.303,0.322
				l0.211-0.32c0.494-0.75,0.335-1.295-0.387-1.77c-0.654-0.432-1.525-0.565-2.549-0.262l0.854-1.297
				c0.828-0.24,1.66-0.076,2.529,0.497c1.216,0.801,1.773,2.051,0.875,3.414l-2.034,3.087c-0.149,0.228-0.123,0.36,0.024,0.457
				c0.12,0.08,0.439,0.118,0.84,0.094L285.448,335.126z M285.128,331.157c-1.245-0.322-2.355-0.556-2.822,0.152
				c-0.326,0.495-0.194,1.08,0.3,1.406c0.374,0.246,0.845,0.289,1.368,0.192L285.128,331.157z"/>
			<path d="M287.488,336.968l-1.189-0.783l6.007-9.115l1.189,0.783L287.488,336.968z"/>
			<path d="M300.247,339.013c-0.382-0.904-0.749-1.338-1.271-1.682c-1.082-0.713-2.367-0.391-3.169,0.826
				c-0.819,1.242-0.511,2.52,0.72,3.329c0.508,0.335,1.076,0.519,1.854,0.647l-0.775,1.176c-0.523-0.076-1.392-0.419-2.02-0.833
				c-1.791-1.18-2.229-3.251-1.065-5.015c1.304-1.979,3.281-2.478,5.099-1.279c0.695,0.457,1.058,0.927,1.465,1.56L300.247,339.013z
				"/>
			<path d="M302.572,346.909l0.502-0.763c-0.847,0.209-1.771,0.099-2.358-0.289c-1.217-0.802-1.499-2.234-0.495-3.758l2.457-3.729
				l1.189,0.785l-2.51,3.809c-0.555,0.842-0.458,1.596,0.357,2.134c0.535,0.353,1.236,0.394,1.985,0.101l2.827-4.291l1.189,0.785
				l-3.954,6L302.572,346.909z"/>
			<path d="M310.667,343.636l-0.907,1.377l0.026,0.018c1.297-0.659,2.163-0.722,2.725-0.352c0.48,0.316,0.786,0.844,0.972,1.637
				l-1.306,0.616c-0.133-0.586-0.442-1.136-0.723-1.319c-0.815-0.538-1.994-0.145-2.672,0.884l-2.07,3.142l-1.189-0.784l3.955-6.001
				L310.667,343.636z"/>
			<path d="M314.285,346.02l1.296,0.854l-0.813,4.754l4.008-2.648l1.27,0.836l-6.681,4.377l-0.401-0.264L314.285,346.02z"/>
			<path d="M322.119,358.946c-1.039,0.006-1.844-0.199-2.859-0.869c-1.872-1.232-1.9-3.457-0.809-5.113
				c1.197-1.818,3.158-2.291,4.814-1.198c1.591,1.048,1.893,2.8,0.431,5.019l-4.224-2.783c-0.597,1.312-0.32,2.377,0.83,3.135
				c0.721,0.476,1.579,0.657,2.574,0.66L322.119,358.946z M323.04,355.221c0.56-0.935,0.416-1.854-0.426-2.408
				c-0.909-0.599-1.81-0.426-2.595,0.418L323.04,355.221z"/>
		</g>
		<g>
			<path d="M289.756,274.559c-0.796-1.338-1.633-2.205-2.739-2.818c-2.183-1.211-4.668-0.557-5.833,1.543
				c-1.188,2.142-0.442,4.495,1.854,5.768c1.077,0.598,2.463,0.872,3.929,0.77l-0.83,1.498c-1.209-0.031-2.426-0.247-3.923-1.077
				c-3.584-1.987-3.622-5.614-2.513-7.616c1.615-2.912,4.992-3.821,8.029-2.137c0.98,0.543,1.842,1.332,2.842,2.601L289.756,274.559
				z"/>
			<path d="M295.368,283.179c-1.103,1.987-3.233,2.563-5.249,1.446c-1.932-1.072-2.542-3.24-1.471-5.172
				c1.002-1.807,3.219-2.406,5.096-1.366C295.717,279.182,296.4,281.316,295.368,283.179z M289.922,280.159
				c-0.737,1.33-0.401,2.67,0.803,3.337c1.315,0.73,2.607,0.348,3.36-1.01c0.676-1.218,0.269-2.597-0.978-3.287
				C291.932,278.547,290.589,278.955,289.922,280.159z"/>
			<path d="M300.562,289.445c-1.035,0.085-1.853-0.058-2.917-0.647c-1.96-1.087-2.158-3.302-1.196-5.038
				c1.057-1.903,2.975-2.523,4.71-1.562c1.666,0.924,2.101,2.647,0.812,4.971l-4.422-2.452c-0.496,1.354-0.14,2.395,1.065,3.062
				c0.756,0.419,1.625,0.534,2.616,0.462L300.562,289.445z M301.197,285.66c0.486-0.975,0.273-1.88-0.607-2.369
				c-0.952-0.527-1.838-0.285-2.556,0.615L301.197,285.66z"/>
			<path d="M306.79,289.53l1.002,4.729l-1.596-0.885l-0.724-3.348l-3.111,1.222l-1.568-0.87l4.416-1.725l-0.931-4.561l1.568,0.869
				l0.666,3.188l2.987-1.162l1.596,0.884L306.79,289.53z"/>
			<path d="M309.945,295.453l-1.246-0.691l3.485-6.285l1.246,0.69L309.945,295.453z M313.458,287.664
				c-0.406-0.226-0.557-0.748-0.331-1.154s0.748-0.555,1.153-0.33c0.406,0.226,0.557,0.748,0.331,1.154
				S313.865,287.889,313.458,287.664z"/>
			<path d="M317.974,293.811c-0.444-0.851-0.993-1.412-1.455-1.668c-0.504-0.279-0.958-0.22-1.145,0.116
				c-0.155,0.28,0.078,0.849,0.827,2.105c0.655,1.261,0.793,1.904,0.437,2.548c-0.613,1.106-1.907,1.359-3.097,0.699
				c-0.771-0.427-1.286-0.914-1.866-1.785l0.745-1.344c0.502,1.01,1.096,1.688,1.6,1.967c0.521,0.252,1.071,0.246,1.32-0.201
				c0.481-0.868-2.202-2.96-1.263-4.654c0.59-1.063,1.759-1.257,3.019-0.559c0.588,0.326,1.097,0.828,1.561,1.543L317.974,293.811z"
				/>
			<path d="M322.064,293.954l1.988,1.103l-0.621,1.12l-1.988-1.103l-1.785,3.22c-0.412,0.742,0.004,1.247,0.367,1.448
				c0.449,0.249,0.996,0.352,1.671,0.322l-0.645,1.162c-0.565-0.002-1.339-0.193-1.744-0.418c-1.358-0.753-1.579-1.974-0.95-3.107
				l1.84-3.317l-1.092-0.605l0.077-0.14l3.604-0.986L322.064,293.954z"/>
			<path d="M327.373,304.311c-1.035,0.085-1.853-0.057-2.917-0.646c-1.96-1.087-2.158-3.303-1.196-5.039
				c1.057-1.902,2.975-2.523,4.71-1.561c1.666,0.924,2.101,2.646,0.812,4.971l-4.423-2.453c-0.496,1.355-0.139,2.395,1.065,3.062
				c0.756,0.42,1.625,0.535,2.616,0.463L327.373,304.311z M328.007,300.526c0.486-0.976,0.273-1.88-0.607-2.369
				c-0.952-0.528-1.838-0.286-2.555,0.615L328.007,300.526z"/>
			<path d="M332.731,300.948l0.027,0.016c0.81-0.337,1.703-0.3,2.403,0.089c1.19,0.659,1.691,1.999,0.736,3.721l-2.15,3.878
				l-1.245-0.69l2.158-3.892c0.513-0.925,0.369-1.79-0.387-2.21c-0.545-0.302-1.119-0.291-2.071,0.041l-2.499,4.508l-1.246-0.69
				l3.485-6.286l1.246,0.691L332.731,300.948z"/>
			<path d="M342.678,307.526c-0.45-0.872-0.849-1.276-1.395-1.579c-1.134-0.629-2.392-0.209-3.098,1.065
				c-0.722,1.302-0.316,2.551,0.972,3.265c0.531,0.295,1.113,0.435,1.898,0.504l-0.684,1.231c-0.528-0.036-1.42-0.311-2.077-0.676
				c-1.876-1.04-2.47-3.071-1.445-4.919c1.149-2.072,3.083-2.721,4.986-1.665c0.728,0.403,1.125,0.844,1.579,1.443L342.678,307.526z
				"/>
			<path d="M347.201,315.305c-1.035,0.085-1.853-0.057-2.917-0.646c-1.96-1.087-2.159-3.303-1.196-5.039
				c1.056-1.902,2.975-2.523,4.71-1.561c1.666,0.924,2.101,2.646,0.812,4.971l-4.423-2.453c-0.495,1.355-0.139,2.395,1.065,3.062
				c0.756,0.419,1.626,0.535,2.617,0.463L347.201,315.305z M347.835,311.521c0.486-0.976,0.273-1.88-0.607-2.369
				c-0.953-0.528-1.838-0.286-2.556,0.615L347.835,311.521z"/>
			<path d="M359.399,316.798c-0.45-0.872-0.849-1.276-1.395-1.579c-1.134-0.629-2.391-0.209-3.097,1.064
				c-0.723,1.303-0.317,2.552,0.971,3.266c0.531,0.295,1.113,0.435,1.898,0.504l-0.684,1.231c-0.527-0.036-1.42-0.312-2.077-0.676
				c-1.876-1.04-2.47-3.071-1.445-4.919c1.149-2.072,3.083-2.721,4.986-1.665c0.728,0.403,1.125,0.844,1.579,1.443L359.399,316.798z
				"/>
			<path d="M362.321,324.494l0.442-0.799c-0.829,0.273-1.759,0.234-2.374-0.107c-1.274-0.707-1.665-2.113-0.78-3.709l2.165-3.906
				l1.246,0.691l-2.213,3.989c-0.488,0.882-0.334,1.626,0.521,2.1c0.561,0.312,1.263,0.298,1.986-0.051l2.492-4.493l1.246,0.69
				l-3.485,6.286L362.321,324.494z"/>
			<path d="M370.143,320.613l-0.8,1.441l0.027,0.016c1.243-0.757,2.102-0.885,2.689-0.559c0.504,0.279,0.848,0.781,1.094,1.559
				l-1.255,0.713c-0.177-0.574-0.526-1.098-0.821-1.26c-0.854-0.475-1.998,0.008-2.596,1.085l-1.824,3.29l-1.246-0.69l3.485-6.286
				L370.143,320.613z"/>
			<path d="M373.93,322.713l1.358,0.754l-0.449,4.803l3.795-2.948l1.33,0.737l-6.327,4.875l-0.42-0.233L373.93,322.713z"/>
			<path d="M382.728,335.004c-1.035,0.085-1.853-0.057-2.917-0.647c-1.96-1.087-2.159-3.302-1.196-5.038
				c1.056-1.903,2.974-2.523,4.71-1.562c1.666,0.925,2.101,2.647,0.812,4.972l-4.423-2.453c-0.495,1.354-0.139,2.395,1.065,3.062
				c0.756,0.419,1.625,0.535,2.617,0.462L382.728,335.004z M383.363,331.22c0.486-0.976,0.273-1.881-0.608-2.369
				c-0.952-0.528-1.837-0.286-2.555,0.615L383.363,331.22z"/>
		</g>
	</g>
</g>
<g>
	<g>
		<path fill="none" stroke="#1FFFCA" d="M87.705,36.315c13.25,77.25,24.787,128.598,89,130.783
			c58.75,2,136.464-69.509,198.25-122.283"/>
		<path fill="none" stroke="#1FFFCA" d="M95.538,354.995c11.917-57.43,34.917-88.896,83.667-88.896
			c62,0,101.911,24.129,203.352,83.403"/>
	</g>
	<g>
		<path fill="none" stroke="#FF623F" d="M114.705,26.78c21.5,110.285,33.25,140.318,62,140.318c14.19,0,36.253-8.639,60.5-27.033
			c28.298-21.468,57.447-54.066,101.75-103.75"/>
		<path fill="none" stroke="#FF623F" d="M116.205,352.315c21.5-71.75,34.602-86.322,63-86.217
			c46.35,0.173,104.332,42.881,159.335,80.547"/>
	</g>
	<g>
		<circle cx="176.705" cy="167.099" r="4.667"/>
		<circle cx="179.205" cy="266.099" r="4.667"/>
	</g>
	<g>
		<polyline fill="none" stroke="#000000" points="62.705,36.315 62.705,364.149 398.705,364.149 398.705,36.315 		"/>
		<g>
			<polygon stroke="#000000" points="59.63,36.315 62.705,25.71 65.78,36.315 			"/>
			<polygon stroke="#000000" points="395.63,36.315 398.705,25.71 401.779,36.315 			"/>
		</g>
	</g>
</g>
</svg>
